<svg width="99" height="70" xmlns="http://www.w3.org/2000/svg" fill="none">
 <g>
  <title>Layer 1</title>
  <path d="m78.061,7.00739l-55.7506,0l0,55.98521l55.7506,0l0,-55.98521z" fill="#B8D078" id="svg_1"/>
  <path d="m50.1865,69.9984c19.2485,0 34.8525,-15.6697 34.8525,-34.9992c0,-19.3295 -15.604,-34.9992 -34.8525,-34.9992c-19.2485,0 -34.8525,15.6697 -34.8525,34.9992c0,19.3295 15.604,34.9992 34.8525,34.9992z" fill="#B8D078" id="svg_2"/>
  <path d="m93.27617,18.81073l-86.21897,0c-3.52939,0 -6.39053,2.8732 -6.39053,6.4174l0,24.0214c0,3.5443 2.86114,6.4174 6.39053,6.4174l86.21897,0c3.5294,0 6.3905,-2.8731 6.3905,-6.4174l0,-24.0214c0,-3.5442 -2.8611,-6.4174 -6.3905,-6.4174z" fill="#B8D078" id="svg_3"/>
  <path d="m38.2073,50.8743c-0.4909,-0.1348 -0.7429,-0.2054 -1.2372,-0.3533c-0.079,-0.0171 -0.1496,-0.0612 -0.1996,-0.1249c-0.0167,-0.0323 -0.0262,-0.0678 -0.0279,-0.1041c-0.0017,-0.0364 0.0045,-0.0726 0.0181,-0.1063l1.3681,-4.4651c0.0078,-0.0338 0.0223,-0.0658 0.0425,-0.094c0.0202,-0.0282 0.0458,-0.0521 0.0753,-0.0703c0.0678,-0.0268 0.1433,-0.0268 0.2111,0c0.8592,0.2596 1.2928,0.3763 2.1635,0.585c0.6431,0.1545 1.0588,0.3731 1.2486,0.6755c0.1917,0.3214 0.2505,0.7054 0.1637,1.0698l-0.1751,0.9055c-0.0271,0.1858 -0.0927,0.3638 -0.1925,0.5226c-0.0997,0.1588 -0.2315,0.2948 -0.3869,0.3994c-0.3109,0.2021 -0.8182,0.2284 -1.5285,0.0591c-0.3583,-0.0854 -0.5367,-0.1315 -0.8935,-0.2251l-0.3027,1.1586c-0.0059,0.0359 -0.0194,0.07 -0.0398,0.1001c-0.0203,0.0301 -0.047,0.0554 -0.0781,0.0741c-0.0749,0.024 -0.1557,0.0217 -0.2291,-0.0066zm1.2421,-3.6434c-0.1096,0.4207 -0.1636,0.6311 -0.2749,1.0518c0.2717,0.0723 0.4075,0.1068 0.6791,0.1725c0.0508,0.0206 0.1058,0.028 0.1601,0.0217c0.0543,-0.0063 0.1062,-0.0262 0.1509,-0.0578c0.0624,-0.06 0.1056,-0.1372 0.1244,-0.2219l0.0867,-0.373c0.0201,-0.0838 0.0161,-0.1715 -0.0115,-0.2531c-0.0278,-0.0805 -0.1129,-0.1381 -0.2536,-0.1726c-0.257,-0.0657 -0.3977,-0.0986 -0.6612,-0.1676z" fill="white" id="svg_10"/>
  <path d="m42.3313,51.7781c-0.0806,-0.0053 -0.1564,-0.0405 -0.2127,-0.0986c-0.0203,-0.03 -0.0338,-0.064 -0.0398,-0.0997c-0.0059,-0.0358 -0.0041,-0.0724 0.0054,-0.1073c0.0589,-0.3386 0.0884,-0.5062 0.1489,-0.8447c0.0027,-0.0361 0.013,-0.0711 0.0302,-0.1028c0.0172,-0.0318 0.041,-0.0595 0.0697,-0.0813c0.0708,-0.0339 0.1512,-0.042 0.2274,-0.023c0.3126,0.0542 0.4681,0.0789 0.7806,0.1265c0.1441,-0.9581 0.2161,-1.4379 0.3584,-2.396c-0.2945,-0.0444 -0.4418,-0.0674 -0.7364,-0.1183c-0.0747,-0.0053 -0.1445,-0.0395 -0.1947,-0.0954c-0.0183,-0.0305 -0.0302,-0.0645 -0.035,-0.0998c-0.0047,-0.0353 -0.0023,-0.0712 0.0071,-0.1056c0.059,-0.3451 0.0901,-0.516 0.1506,-0.8595c0.0027,-0.0355 0.0125,-0.0701 0.0288,-0.1017c0.0163,-0.0317 0.0388,-0.0596 0.0661,-0.0823c0.0311,-0.0182 0.0656,-0.0299 0.1013,-0.0344c0.0357,-0.0045 0.0719,-0.0018 0.1066,0.0081c1.2241,0.207 1.8394,0.2859 3.0717,0.396c0.0726,-0.0001 0.1425,0.0282 0.1947,0.0789c0.0413,0.0586 0.0578,0.1313 0.0458,0.2021c-0.0278,0.3484 -0.0425,0.521 -0.0703,0.8694c0,0.0358 -0.0071,0.0712 -0.0209,0.1042c-0.0137,0.033 -0.0339,0.063 -0.0593,0.0881c-0.0622,0.0411 -0.1379,0.0564 -0.2111,0.0427c-0.2913,-0.0246 -0.437,-0.0394 -0.7266,-0.0707c-0.1031,0.9631 -0.1539,1.4446 -0.257,2.4076c0.3077,0.0329 0.4615,0.0493 0.7708,0.0756c0.0782,0.0004 0.1537,0.029 0.2128,0.0805c0.0223,0.0285 0.0385,0.0613 0.0475,0.0964c0.009,0.0351 0.0107,0.0716 0.0048,0.1074l-0.0703,0.8546c0.0002,0.036 -0.0073,0.0717 -0.0219,0.1046c-0.0147,0.0329 -0.0363,0.0622 -0.0632,0.086c-0.0695,0.0413 -0.1513,0.0564 -0.2308,0.0427c-1.3959,-0.1249 -2.0931,-0.2136 -3.4792,-0.4503z" fill="white" id="svg_11"/>
  <path d="m51.2944,52.3731c-1.3575,0.0613 -2.7173,0.0471 -4.0732,-0.0428c-0.0806,0.0028 -0.1595,-0.0235 -0.2226,-0.0739c-0.0234,-0.0276 -0.0406,-0.06 -0.0505,-0.0948c-0.0099,-0.0349 -0.0122,-0.0715 -0.0068,-0.1074c0.0246,-0.3861 0.036,-0.5784 0.0606,-0.9646c0.0046,-0.083 0.0263,-0.1642 0.0638,-0.2383c0.0426,-0.0744 0.098,-0.1406 0.1637,-0.1956c0.8182,-0.8036 1.2077,-1.2161 1.949,-2.0558c-0.6431,-0.0099 -0.9655,-0.0198 -1.607,-0.0543c-0.0744,0.0028 -0.147,-0.023 -0.2029,-0.0723c-0.0219,-0.0284 -0.0378,-0.0609 -0.0468,-0.0957c-0.009,-0.0347 -0.0109,-0.0709 -0.0056,-0.1064l0.0524,-0.871c-0.0014,-0.0357 0.0044,-0.0712 0.0171,-0.1045c0.0126,-0.0334 0.0319,-0.0638 0.0565,-0.0894c0.0587,-0.0423 0.1315,-0.06 0.2029,-0.0493c1.1116,0.0682 2.2258,0.0797 3.3385,0.0345c0.0716,-0.0092 0.1439,0.0103 0.2013,0.0542c0.0478,0.0535 0.0725,0.1238 0.0687,0.1956c0.0164,0.4289 0.0246,0.6442 0.0426,1.0731c0.0053,0.0849 -0.007,0.1699 -0.036,0.2498c-0.0325,0.0781 -0.0791,0.1494 -0.1375,0.2103c-0.6759,0.8349 -1.031,1.2457 -1.7772,2.0493c0.7609,0 1.1455,0 1.9032,-0.0262c0.0775,-0.0096 0.1559,0.0091 0.2209,0.0525c0.0254,0.0256 0.0452,0.0562 0.0582,0.0898c0.013,0.0337 0.0188,0.0697 0.0171,0.1058c0.0147,0.3435 0.0229,0.5144 0.036,0.8578c0.0051,0.0359 0.0023,0.0724 -0.0081,0.107c-0.0105,0.0347 -0.0284,0.0666 -0.0524,0.0935c-0.0646,0.0495 -0.1448,0.074 -0.2259,0.0691z" fill="white" id="svg_12"/>
  <path d="m56.6556,51.8537c-1.3422,0.2292 -2.696,0.3834 -4.0553,0.4618c-0.0793,0.0124 -0.1605,-0.0039 -0.2291,-0.046c-0.0268,-0.0244 -0.0481,-0.0544 -0.0622,-0.0879c-0.0142,-0.0335 -0.0208,-0.0697 -0.0196,-0.106c-0.0213,-0.3862 -0.0327,-0.5785 -0.0556,-0.9647c-0.0062,-0.0826 0.0056,-0.1656 0.0343,-0.2432c0.0321,-0.0798 0.0787,-0.1528 0.1375,-0.2153c0.7135,-0.8973 1.0523,-1.3542 1.6872,-2.2794c-0.6398,0.0707 -0.9606,0.0986 -1.6037,0.143c-0.0734,0.0118 -0.1484,-0.0053 -0.2095,-0.0477c-0.025,-0.0254 -0.0446,-0.0558 -0.0576,-0.0891c-0.0129,-0.0334 -0.0189,-0.069 -0.0177,-0.1048c-0.0213,-0.3484 -0.0327,-0.5226 -0.054,-0.871c-0.0102,-0.0707 0.0074,-0.1426 0.0491,-0.2005c0.0532,-0.0498 0.1236,-0.077 0.1964,-0.0756c1.113,-0.0664 2.2218,-0.1904 3.3221,-0.3714c0.0705,-0.0174 0.1449,-0.0068 0.2078,0.0296c0.0271,0.0232 0.0493,0.0515 0.0653,0.0834c0.0161,0.0319 0.0256,0.0667 0.028,0.1023c0.0671,0.424 0.1015,0.636 0.1636,1.06c0.0167,0.0835 0.0167,0.1695 0,0.2531c-0.0225,0.0814 -0.0603,0.1578 -0.1112,0.2251c-0.5728,0.9105 -0.8772,1.3607 -1.522,2.2498c0.7577,-0.0854 1.1358,-0.1364 1.8902,-0.2564c0.0763,-0.0195 0.1571,-0.0107 0.2275,0.0247c0.0282,0.0221 0.0515,0.0499 0.0684,0.0816c0.0169,0.0317 0.0271,0.0666 0.0297,0.1025l0.1391,0.8463c0.0093,0.0351 0.0108,0.0717 0.0046,0.1075c-0.0062,0.0357 -0.02,0.0697 -0.0406,0.0996c-0.0585,0.0534 -0.1337,0.0847 -0.2127,0.0887z" fill="white" id="svg_13"/>
  <path d="m59.4753,51.0452c0.0109,0.0345 0.0144,0.071 0.0101,0.107c-0.0042,0.036 -0.016,0.0707 -0.0347,0.1017c-0.0544,0.0596 -0.128,0.098 -0.2078,0.1085c-0.4746,0.1051 -0.7135,0.1544 -1.1897,0.2465c-0.0777,0.022 -0.1607,0.0156 -0.2341,-0.0181c-0.0297,-0.0208 -0.0546,-0.0479 -0.0727,-0.0794c-0.0181,-0.0316 -0.029,-0.0667 -0.032,-0.103l-0.3502,-1.8718c-0.0267,-0.1663 -0.0327,-0.3352 -0.018,-0.5029c0.0203,-0.2309 0.0548,-0.4603 0.1031,-0.687c0.1375,-0.6918 0.2013,-1.0386 0.3175,-1.7321c0.0081,-0.077 0.0422,-0.1488 0.0965,-0.2038c0.0612,-0.0563 0.1374,-0.0934 0.2193,-0.1068c0.7675,-0.1643 1.1456,-0.2629 1.9098,-0.47c0.078,-0.0228 0.1609,-0.0228 0.2389,0c0.0736,0.023 0.1368,0.0713 0.1784,0.1364c0.4239,0.5604 0.6415,0.8381 1.085,1.387c0.1468,0.1791 0.2829,0.3668 0.4075,0.5621c0.0914,0.1411 0.164,0.2936 0.216,0.4535c0.2242,0.7281 0.3355,1.0912 0.5581,1.8193c0.0136,0.0337 0.0197,0.0699 0.018,0.1062c-0.0016,0.0363 -0.0112,0.0719 -0.0278,0.1041c-0.0501,0.0637 -0.1207,0.1079 -0.1997,0.1249c-0.4811,0.1446 -0.7217,0.2137 -1.2061,0.3451c-0.0812,0.0273 -0.1691,0.0273 -0.2504,0c-0.0323,-0.0159 -0.0605,-0.0389 -0.0827,-0.0674c-0.0221,-0.0285 -0.0374,-0.0616 -0.0449,-0.0969l-0.2455,-0.986c-0.5515,0.1446 -0.8281,0.212 -1.3829,0.3385c0.0884,0.3928 0.1326,0.59 0.221,0.9844zm-0.3273,-3.4314c-0.0377,0.4601 -0.0573,0.6902 -0.1031,1.1504c0.4762,-0.1101 0.7151,-0.1644 1.1881,-0.2926c-0.2504,-0.3862 -0.3748,-0.5817 -0.6203,-0.9712c-0.0226,-0.031 -0.0516,-0.0568 -0.0851,-0.0756c-0.0259,-0.0126 -0.0555,-0.0155 -0.0834,-0.0082l-0.1833,0.0444c-0.0288,0.007 -0.0542,0.0238 -0.072,0.0476c-0.0221,0.0317 -0.0377,0.0674 -0.0458,0.1052l0.0049,0z" fill="white" id="svg_14"/>
  <path d="m50.2945,15.5563l-2.5333,1.3377l0.4828,-2.8332l-2.0489,-2.0065l2.8328,-0.4125l1.2666,-2.57851l1.2667,2.57851l2.8328,0.4125l-2.0506,2.0065l0.4844,2.8332l-2.5333,-1.3377z" fill="white" id="svg_15"/>
  <path d="m57.9304,18.613l-1.8525,0.9778l0.3535,-2.0707l-1.4974,-1.4659l2.0702,-0.3023l0.9262,-1.8834l0.9247,1.8834l2.0718,0.3023l-1.4991,1.4659l0.3535,2.0707l-1.8509,-0.9778z" fill="white" id="svg_16"/>
  <path d="m41.0859,18.613l-1.8525,0.9778l0.3535,-2.0707l-1.4974,-1.4659l2.0702,-0.3023l0.9262,-1.8834l0.9247,1.8834l2.0701,0.3023l-1.4974,1.4659l0.3535,2.0707l-1.8509,-0.9778z" fill="white" id="svg_17"/>
  <text transform="matrix(0.784857 0 0 0.64868 18.5128 14.9745)" stroke="null" xml:space="preserve" text-anchor="start" font-family="'Open Sans'" font-size="24" stroke-width="0" id="svg_7" y="39.25887" x="-21.34756" fill="#ffffff">NATURALE</text>
 </g>

</svg>